<svg version="1.1" xmlns="http://www.w3.org/2000/svg" stroke="#000000" fill="#FFFFFF" width="38" height="41.979" viewBox="0 0 97.01 112.04" enableBackground="new 0 0 97.01 41.979" xml-space="preserve">
                            <path stroke="#000000" d="M96.912,56.592c-0.065-17.011-6.941-23.548-11.57-26.022c-0.62-7.69-3.394-14.028-8.272-18.872
                            c-9.393-9.32-23.146-9.323-23.671-9.323H30.26c-8.864,0-15.918,2.659-20.961,7.902c-7.584,7.881-7.594,18.789-7.563,20.155v76.723
                            c0,2.698,2.188,4.885,4.885,4.885c2.701,0,4.888-2.187,4.888-4.885c0-18.232,16.008-18.742,18.087-18.742l38.027-0.008
                            c9.652,0,17.167-2.938,22.33-8.727C97.759,70.931,97.101,58.76,96.912,56.592 M82.658,73.172c-3.231,3.621-8.289,5.455-15.036,5.455
                            l-38.027,0.008c-6.656,0-11.724,1.531-18.087,6.609V30.37c0-0.064-0.003-0.127-0.003-0.189c-0.002-0.079-0.161-7.934,4.836-13.125
                            c3.132-3.254,7.813-4.906,13.919-4.906h23.156c2.091,0,19.062,0.522,21.884,16.915H38.648c-5.95,0-15.258,3.633-15.258,16.171v0.303
                            c0,12.536,9.308,16.17,15.258,16.17h16.77l0.473,0.006h3.984c1.585,0.066,10.105,0.136,16.973-6.022
                            c3.612-3.243,6.097-7.549,7.446-12.849c1.522,2.634,2.843,6.944,2.843,13.983c0,0.186,0.012,0.371,0.03,0.556
                            C87.182,57.479,88.103,67.068,82.658,73.172 M75.18,38.839c-0.772,4.123-2.375,7.306-4.781,9.504
                            c-4.274,3.906-10.01,3.612-10.024,3.612c-0.125-0.01-0.251-0.016-0.376-0.016h-8.225l-1.761-0.003H39.565
                            c-1.451-0.059-6.399,0.019-6.399-6.397v-0.303c0-6.417,4.95-6.338,6.399-6.397H75.18z"></path>
</svg>